<?xml version="1.0" standalone="no"?>
<!DOCTYPE svg PUBLIC "-//W3C//DTD SVG 20010904//EN"
 "http://www.w3.org/TR/2001/REC-SVG-20010904/DTD/svg10.dtd">
<svg version="1.0" xmlns="http://www.w3.org/2000/svg"
 width="600.000000pt" height="600.000000pt" viewBox="0 0 600.000000 600.000000"
 preserveAspectRatio="xMidYMid meet">
<metadata>
Created by potrace 1.11, written by Peter Selinger 2001-2013
</metadata>
<g transform="translate(0.000000,600.000000) scale(0.100000,-0.100000)"
fill="#000000" stroke="none">
<path d="M2761 5880 c-19 -4 -60 -11 -92 -14 -33 -4 -64 -8 -71 -11 -14 -4
-106 -16 -154 -20 -37 -2 -57 -13 -49 -25 3 -5 8 -26 10 -47 6 -49 14 -101 20
-133 2 -14 7 -50 10 -80 17 -144 17 -145 50 -144 28 1 89 8 145 17 14 3 52 7
85 11 178 21 167 15 160 84 -4 31 -9 68 -11 82 -3 14 -7 43 -10 65 -2 22 -6
54 -8 70 -3 17 -8 53 -12 80 -6 48 -19 76 -33 74 -3 -1 -21 -5 -40 -9z"/>
<path d="M3298 5875 c-2 -2 -24 -6 -48 -8 -25 -2 -54 -8 -65 -12 -11 -4 -35
-14 -53 -21 -120 -48 -211 -190 -218 -337 -7 -170 96 -320 261 -380 53 -19
192 -26 216 -11 8 5 19 9 24 9 21 0 105 47 127 71 13 13 28 24 33 24 16 1 68
89 89 150 30 89 25 238 -9 262 -5 4 -6 8 -2 8 15 0 -34 73 -82 123 -50 52
-151 107 -210 114 -20 2 -41 6 -48 8 -6 2 -13 2 -15 0z"/>
<path d="M2226 5793 c-4 -5 -11 -8 -14 -8 -50 -3 -150 -45 -155 -66 -5 -17 4
-64 21 -109 3 -8 5 -18 4 -21 -1 -4 7 -28 18 -55 18 -47 20 -49 57 -48 21 0
77 13 125 28 92 30 104 42 88 94 -5 15 -16 54 -25 87 -27 96 -33 105 -75 105
-20 0 -40 -3 -44 -7z"/>
<path d="M3903 5718 c-13 -6 -23 -15 -23 -19 0 -4 -16 -43 -36 -86 -122 -264
-117 -249 -103 -276 19 -35 29 -37 122 -31 85 6 100 1 75 -24 -9 -9 -9 -12 1
-12 7 0 9 -4 6 -10 -3 -5 2 -10 11 -10 10 0 25 -6 33 -14 21 -19 172 -96 188
-96 7 0 13 -4 13 -10 0 -5 6 -10 14 -10 7 0 20 -7 27 -16 33 -40 94 -36 114 9
6 12 35 76 65 142 30 66 58 123 63 126 5 3 8 9 8 13 -1 3 -1 7 0 9 0 1 3 15 5
31 6 33 -29 78 -52 69 -13 -5 -59 12 -106 37 -10 6 -25 10 -33 10 -8 0 -15 5
-15 12 0 6 -3 9 -6 5 -3 -3 -26 3 -50 13 -24 11 -44 17 -44 13 0 -3 -6 -1 -13
5 -7 6 -25 16 -41 22 -28 10 -28 10 -14 -12 15 -25 13 -58 -4 -58 -12 0 -48
39 -48 51 0 5 -6 6 -13 4 -7 -3 -22 15 -37 46 -37 80 -56 92 -107 67z"/>
<path d="M1903 5675 c-32 -14 -53 -41 -53 -70 0 -9 16 -49 35 -89 19 -40 35
-78 35 -85 0 -6 -29 11 -64 39 -35 27 -69 50 -75 50 -6 0 -11 4 -11 9 0 10
-28 19 -77 27 -25 4 -38 0 -58 -20 -32 -32 -32 -66 1 -122 28 -47 20 -56 -24
-25 -34 24 -116 61 -135 61 -25 0 -67 -40 -67 -65 0 -42 11 -55 80 -95 100
-58 154 -127 168 -213 6 -36 13 -45 44 -60 35 -17 39 -17 66 -2 15 9 34 31 42
48 20 47 39 134 33 157 -8 30 12 24 26 -7 7 -16 11 -28 9 -29 -1 0 2 -7 8 -15
10 -12 16 -31 30 -84 1 -5 5 -25 8 -44 8 -43 23 -71 39 -72 7 -1 26 -3 43 -5
68 -8 104 96 100 283 -4 154 -23 231 -88 354 -37 71 -71 93 -115 74z"/>
<path d="M2264 5409 c-3 -5 -15 -10 -27 -10 -15 -1 -17 -3 -6 -6 21 -5 32 -43
18 -60 -6 -6 -8 -17 -5 -22 4 -5 2 -12 -3 -15 -13 -9 -1 -46 15 -46 8 0 14 -4
14 -10 0 -5 3 -9 8 -9 19 3 33 -2 27 -11 -7 -12 3 -13 70 -10 65 3 74 11 69
63 -9 90 -8 89 -70 83 -47 -4 -55 -2 -53 12 1 9 1 22 0 28 -1 14 -49 25 -57
13z"/>
<path d="M4606 5383 c-3 -4 -21 -8 -38 -9 -30 -3 -67 -28 -57 -39 3 -3 19 1
35 9 40 20 76 23 81 9 3 -7 -17 -22 -46 -35 -34 -15 -51 -28 -51 -40 0 -24 13
-23 60 7 27 17 40 21 40 12 0 -7 -5 -18 -12 -25 -20 -20 1 -26 22 -7 24 22 26
67 4 100 -17 26 -26 30 -38 18z"/>
<path d="M4615 5198 c-82 -39 -154 -77 -159 -87 -6 -9 -33 -85 -62 -168 l-51
-153 44 -41 c37 -34 47 -38 60 -28 13 11 15 10 12 -12 -3 -19 6 -35 36 -62 22
-20 48 -37 58 -37 9 0 17 -7 17 -17 0 -18 67 -82 87 -83 6 0 15 5 18 10 4 6
11 8 16 5 5 -4 9 -1 9 4 0 6 4 11 10 11 10 0 91 36 174 76 27 14 51 22 53 20
13 -12 43 37 71 117 18 48 32 89 32 92 0 3 2 10 5 17 28 86 35 111 35 126 0
26 -70 83 -93 76 -16 -5 -19 -3 -14 10 8 21 -70 99 -91 91 -18 -7 -38 5 -24
14 7 4 6 11 -1 21 -17 21 -77 70 -85 69 -4 -1 -74 -33 -157 -71z"/>
<path d="M2820 5236 c-6 -6 -10 -24 -10 -42 0 -41 -21 -58 -71 -56 -60 3 -99
-23 -99 -65 0 -13 -6 -23 -12 -24 -7 0 -4 -4 8 -9 18 -7 20 -16 19 -110 0 -73
3 -104 13 -112 8 -7 57 -12 115 -12 l102 -1 50 49 c48 48 49 51 48 103 -1 29
1 53 5 54 57 6 82 16 82 32 0 23 -41 68 -59 65 -26 -4 -41 11 -41 44 0 18 -11
45 -26 65 -23 31 -30 33 -70 31 -25 -2 -49 -7 -54 -12z"/>
<path d="M1139 5223 c-8 -10 -32 -33 -53 -51 -41 -36 -45 -65 -8 -70 27 -4 28
-18 3 -32 -19 -9 -22 -32 -8 -46 12 -13 8 -22 -23 -51 -20 -19 -29 -35 -25
-45 11 -28 35 -29 63 -3 51 48 81 15 31 -34 -25 -25 -28 -34 -19 -50 12 -23
33 -19 67 12 20 18 26 19 48 7 22 -12 27 -11 45 5 18 16 24 14 22 -6 -1 -4 8
-15 18 -24 22 -20 15 -24 103 55 43 39 48 76 10 74 -29 -2 -29 10 1 38 24 23
50 94 40 110 -3 4 0 8 5 8 6 0 11 4 11 10 0 5 -7 7 -15 4 -9 -4 -15 0 -15 9 0
8 -17 32 -37 53 -36 37 -41 39 -85 34 -26 -3 -57 -13 -68 -22 -26 -23 -33 -23
-45 5 -13 28 -45 33 -66 10z"/>
<path d="M3627 5196 c-84 -31 -112 -82 -120 -221 -6 -103 -24 -187 -51 -240
-26 -50 -1 -56 42 -9 42 46 129 105 206 139 140 62 179 166 103 278 -36 53
-115 76 -180 53z"/>
<path d="M2185 5139 c-4 -5 -7 -64 -7 -131 -1 -122 6 -145 40 -133 18 7 14
-13 -8 -37 -11 -12 -20 -24 -20 -27 0 -3 70 -6 155 -6 117 0 155 3 155 12 0 7
-9 18 -20 25 -26 17 -26 33 1 35 12 1 24 5 27 8 7 7 10 195 4 238 l-4 27 -159
0 c-100 0 -160 -4 -164 -11z"/>
<path d="M3925 5084 c-10 -10 -13 -23 -9 -33 4 -9 8 -44 8 -78 1 -47 -4 -68
-20 -90 -40 -53 11 -96 72 -60 12 6 31 18 43 25 18 11 20 10 14 -5 -3 -10 -19
-38 -35 -62 -32 -49 -32 -85 2 -96 39 -12 146 68 199 150 32 49 51 85 46 85
-2 0 0 13 5 30 6 22 5 34 -7 46 -28 28 -56 13 -85 -46 l-27 -55 -1 60 c-1 71
-23 109 -61 103 -13 -1 -28 -13 -34 -25 -14 -32 -20 -29 -39 22 -19 49 -42 58
-71 29z"/>
<path d="M3120 5014 c-41 -30 -81 -59 -89 -63 -14 -9 -17 -85 -6 -122 5 -14
61 -44 181 -95 30 -13 34 -12 79 23 l48 36 -6 102 c-4 56 -9 108 -12 116 -3 8
-20 20 -38 27 -17 7 -40 18 -49 23 -26 13 -27 13 -108 -47z"/>
<path d="M1615 4951 c-11 -5 -23 -7 -27 -4 -5 2 -8 -1 -8 -7 0 -6 -4 -9 -8 -6
-9 5 -72 -34 -103 -65 -21 -21 -48 -71 -60 -112 -6 -23 -5 -28 6 -23 14 5 282
86 297 89 13 3 -47 132 -62 134 -8 1 -24 -2 -35 -6z"/>
<path d="M1707 4938 c4 -13 13 -34 22 -48 9 -13 15 -24 13 -25 -4 0 14 -47 45
-118 l26 -57 24 52 c13 29 31 68 41 86 l17 34 -35 30 c-38 31 -79 52 -128 63
-28 6 -30 4 -25 -17z"/>
<path d="M2080 4890 c-6 -11 -16 -18 -21 -14 -6 3 -13 -4 -16 -16 -5 -18 -12
-21 -39 -18 -43 5 -48 -9 -21 -57 23 -39 47 -57 47 -34 0 23 52 60 80 57 45
-4 51 8 23 57 -28 50 -37 54 -53 25z"/>
<path d="M775 4846 c-19 -21 -92 -124 -162 -230 -198 -298 -207 -314 -197
-358 8 -40 79 -111 178 -177 170 -115 261 -137 313 -74 50 60 307 450 334 506
23 50 26 63 16 86 -18 42 -86 108 -177 170 -102 69 -166 99 -225 108 -42 5
-47 3 -80 -31z"/>
<path d="M5133 4860 c-56 -23 -66 -95 -19 -139 19 -18 39 -23 97 -27 41 -2 87
-9 102 -16 41 -16 42 -6 2 37 -20 20 -44 54 -55 75 -22 42 -64 80 -89 79 -9 0
-26 -4 -38 -9z"/>
<path d="M1840 4684 c-36 -75 -67 -140 -68 -145 -2 -5 20 -20 50 -34 l53 -24
27 32 c16 17 28 37 28 42 0 6 6 22 14 36 27 52 2 229 -32 229 -4 0 -36 -61
-72 -136z"/>
<path d="M3735 4808 c-11 -6 -23 -16 -27 -22 -4 -6 -8 -7 -8 -2 0 4 -15 -3
-32 -16 -18 -14 -38 -27 -43 -29 -31 -13 -206 -124 -221 -141 -21 -22 -24 -88
-5 -110 20 -22 131 -208 131 -218 0 -6 4 -10 9 -10 5 0 14 -13 21 -29 20 -49
54 -74 102 -74 23 0 44 5 46 12 2 6 8 11 13 11 6 0 15 5 22 10 7 6 69 44 138
85 144 86 163 103 162 148 -1 32 -30 96 -59 128 -8 8 -14 19 -14 22 0 12 -112
191 -134 214 -25 27 -74 37 -101 21z"/>
<path d="M3314 4732 c-12 -10 -26 -27 -32 -39 -10 -18 -7 -25 23 -52 40 -36
49 -37 79 -13 30 24 26 57 -11 92 -18 17 -33 30 -35 30 -2 -1 -12 -9 -24 -18z"/>
<path d="M1494 4729 c-2 -4 -22 -10 -43 -14 -22 -4 -44 -12 -50 -19 -14 -17
-7 -84 15 -136 l20 -44 46 89 c61 121 65 134 38 132 -12 -1 -23 -4 -26 -8z"/>
<path d="M5101 4650 c-2 -3 -4 -18 -6 -35 -1 -16 -3 -35 -4 -42 0 -7 -20 -17
-43 -24 -59 -15 -116 -46 -145 -77 l-23 -25 -41 21 c-47 25 -49 26 -49 12 0
-5 6 -10 13 -10 6 0 23 -9 36 -19 l24 -19 -21 -45 c-25 -54 -31 -136 -14 -188
l12 -36 82 41 c45 23 88 47 96 54 7 6 17 12 21 12 5 0 40 18 79 39 39 21 73
36 76 33 3 -3 6 -1 6 4 0 5 29 23 65 39 35 17 66 35 69 41 7 17 -64 85 -110
105 -23 10 -56 20 -75 21 -33 3 -34 5 -40 53 -3 28 -7 48 -8 45z"/>
<path d="M1488 4560 c-15 -32 -25 -66 -22 -74 7 -18 67 -58 120 -79 58 -22
147 -17 208 14 52 26 57 37 23 56 -21 12 -296 143 -300 143 -1 0 -14 -27 -29
-60z"/>
<path d="M2183 4605 c-17 -7 -34 -18 -37 -24 -11 -18 -15 -71 -5 -71 5 0 9 -6
9 -12 0 -7 124 -218 275 -468 152 -250 278 -461 282 -468 3 -8 59 -101 123
-208 145 -238 158 -265 166 -337 9 -82 -9 -128 -139 -344 -647 -1077 -726
-1211 -722 -1238 4 -34 20 -55 49 -65 40 -13 803 -12 812 1 3 5 13 9 22 9 21
0 69 26 111 60 19 15 99 138 199 304 92 154 167 282 167 285 0 4 6 13 13 21
11 13 59 91 132 215 9 17 91 152 180 300 195 322 200 332 205 398 5 71 -11
127 -59 209 -23 38 -46 76 -51 86 -112 191 -402 668 -407 670 -5 2 -8 8 -8 12
0 5 -32 62 -72 127 -39 65 -78 131 -87 146 -9 16 -21 36 -26 45 -158 264 -179
291 -265 331 l-55 26 -390 1 c-301 2 -398 -1 -422 -11z"/>
<path d="M4428 4564 c-2 -1 -34 -5 -73 -9 -100 -9 -207 -26 -227 -36 -29 -16
-39 -86 -23 -165 3 -16 8 -42 10 -58 8 -52 33 -79 75 -78 56 0 302 28 331 38
20 6 44 59 42 94 -6 153 -37 220 -99 218 -19 -1 -35 -2 -36 -4z"/>
<path d="M5426 4439 c-14 -11 -26 -29 -26 -40 0 -25 112 -247 140 -276 37 -41
100 -18 100 35 0 31 -116 253 -146 280 -31 27 -35 27 -68 1z"/>
<path d="M1336 4405 c-8 -9 -18 -42 -22 -75 -4 -39 -15 -71 -30 -92 -13 -17
-24 -38 -24 -45 0 -7 -12 -15 -27 -19 -84 -19 -88 -21 -88 -39 0 -25 40 -45
89 -45 29 0 47 -7 66 -25 59 -57 180 -77 249 -42 19 9 46 17 61 17 45 0 69 43
30 55 -17 5 -19 14 -17 67 3 50 -1 66 -22 99 -29 44 -59 58 -124 55 l-46 -2
-22 53 c-23 56 -44 67 -73 38z"/>
<path d="M5304 4375 c-12 -8 -93 -51 -180 -96 -206 -106 -264 -138 -264 -150
0 -5 11 -27 25 -49 14 -22 22 -40 19 -40 -4 0 -2 -6 3 -12 6 -7 39 -67 73
-133 35 -66 71 -129 82 -141 20 -22 51 -25 70 -6 25 25 46 12 74 -42 37 -74
55 -94 86 -100 34 -6 67 29 62 64 -2 14 -18 53 -36 87 -30 57 -32 64 -17 78 8
9 28 17 43 18 24 2 32 -6 64 -65 40 -74 76 -98 112 -75 36 22 35 60 -6 138
-37 69 -37 72 -18 85 39 26 64 49 64 58 0 10 -12 33 -136 271 -65 126 -80 139
-120 110z"/>
<path d="M1840 4372 c-63 -28 -90 -83 -63 -129 17 -29 16 -33 -6 -33 -30 0
-32 -13 -10 -56 32 -60 45 -71 69 -57 13 9 21 9 26 2 3 -6 15 -8 25 -6 13 4
25 -3 35 -19 20 -29 49 -32 51 -4 1 11 -2 20 -6 20 -5 0 -11 9 -14 20 -4 15 0
20 14 20 10 0 19 -3 19 -7 0 -5 7 -16 15 -27 12 -15 16 -16 28 -5 13 12 13 18
0 42 -11 22 -11 32 -3 42 6 8 9 23 5 35 -4 14 -2 20 9 20 26 0 26 17 1 63 -28
49 -52 66 -61 42 -4 -8 -13 -15 -21 -15 -8 0 -11 4 -8 10 7 11 -52 50 -75 49
-8 0 -22 -3 -30 -7z"/>
<path d="M3827 4188 c-90 -31 -137 -151 -94 -235 20 -38 66 -83 86 -83 10 0
12 -8 7 -31 -6 -30 -5 -30 27 -24 174 37 261 203 165 319 -17 21 -42 42 -57
48 -37 14 -101 17 -134 6z"/>
<path d="M4280 4153 c-27 -13 -50 -28 -50 -31 0 -4 24 -8 53 -8 77 -2 131 -31
286 -155 33 -26 33 -26 17 -57 -9 -17 -20 -33 -25 -37 -6 -3 -54 18 -108 46
-54 29 -116 62 -138 73 -50 26 -132 28 -150 2 -10 -13 -14 -75 -6 -107 0 -3
16 -5 34 -6 17 -1 73 -13 122 -27 50 -14 106 -28 125 -31 39 -7 57 -19 41 -29
-6 -4 -11 -5 -11 -1 0 3 -13 -1 -29 -9 -15 -8 -37 -15 -47 -15 -10 0 -34 -2
-52 -5 -18 -3 -51 -2 -73 3 -39 9 -40 9 -23 -10 9 -10 22 -19 28 -19 6 0 16
-8 23 -19 24 -38 146 -44 220 -11 43 19 76 44 68 52 -2 2 11 21 30 43 19 21
36 43 37 49 2 16 7 57 11 95 3 19 -3 51 -12 72 -17 40 -37 54 -28 19 10 -38
-25 -21 -94 45 -103 100 -166 119 -249 78z"/>
<path d="M2008 4055 c-48 -30 -92 -55 -98 -55 -5 0 -10 -3 -10 -8 0 -4 -14
-13 -30 -20 -17 -8 -36 -19 -43 -25 -6 -7 -28 -21 -48 -31 -56 -29 -61 -46
-34 -97 13 -24 30 -55 37 -69 7 -14 15 -27 18 -30 9 -8 130 -208 130 -215 0
-14 30 -35 49 -35 11 0 63 27 117 60 53 34 109 67 125 75 30 16 51 46 55 80 1
11 10 49 19 85 l17 65 -74 122 c-90 147 -95 153 -122 153 -11 -1 -60 -25 -108
-55z"/>
<path d="M4757 4093 c-22 -26 -23 -53 -1 -98 10 -22 21 -42 24 -45 3 -3 25
-44 49 -92 42 -82 55 -97 90 -104 23 -4 50 19 57 48 4 22 -9 55 -61 156 -37
70 -74 133 -83 140 -22 17 -56 15 -75 -5z"/>
<path d="M520 4003 c-8 -2 -22 -7 -30 -11 -8 -3 -19 -7 -25 -8 -5 -1 -12 -3
-15 -4 -3 -1 -14 -3 -25 -5 -10 -2 -28 -8 -40 -14 -11 -6 -46 -17 -77 -26 -65
-18 -65 -18 -77 -77 -5 -24 -12 -54 -15 -68 -4 -14 -9 -38 -11 -53 -3 -16 -15
-65 -26 -110 -11 -45 -22 -98 -25 -117 -2 -19 -13 -68 -23 -109 l-19 -74 47
-43 c25 -24 78 -72 116 -108 39 -36 77 -66 85 -66 8 0 39 9 68 19 29 11 56 20
60 22 4 1 12 3 17 5 6 1 78 24 160 49 228 71 257 82 265 96 4 8 15 50 24 94 9
44 23 109 31 145 l14 65 -42 40 c-24 22 -88 81 -142 130 -55 50 -114 104 -131
120 -113 109 -129 120 -164 108z"/>
<path d="M1425 3909 c-16 -5 -43 -10 -60 -11 -16 -1 -35 -5 -41 -10 -7 -5 -16
-8 -20 -6 -13 3 -94 -12 -134 -25 -57 -19 -78 -36 -101 -84 -18 -38 -20 -54
-15 -111 4 -37 9 -92 12 -122 8 -99 24 -141 58 -155 25 -11 35 -11 56 0 27 14
28 16 90 112 37 58 43 62 87 69 55 9 48 8 92 18 18 5 36 4 40 -1 9 -13 104
-79 137 -95 31 -15 39 -16 67 -3 17 7 50 59 42 66 -2 3 -6 18 -9 34 -2 17 -5
31 -6 33 -2 1 -3 5 -4 10 -8 28 -30 100 -36 117 -4 11 -13 38 -19 60 -13 45
-36 76 -71 95 -29 16 -122 21 -165 9z"/>
<path d="M4015 3855 c-22 -13 -68 -40 -102 -60 -35 -20 -63 -38 -63 -40 0 -4
68 -121 90 -155 6 -8 15 -25 22 -37 6 -13 14 -23 18 -23 11 0 204 113 211 123
4 6 -17 49 -45 96 -29 47 -55 94 -59 104 -8 23 -24 21 -72 -8z"/>
<path d="M4695 3729 c-23 -19 -26 -27 -20 -53 11 -52 17 -81 19 -91 1 -5 4
-14 7 -20 3 -5 4 -30 2 -55 -2 -25 -4 -63 -5 -85 -1 -38 -6 -43 -65 -84 -66
-45 -74 -59 -46 -82 25 -21 73 -18 126 8 32 16 53 21 60 15 13 -11 113 -42
119 -37 1 1 28 5 59 8 79 9 140 38 183 88 20 24 38 42 39 39 5 -12 69 38 74
58 7 28 3 31 -33 38 -32 6 -37 9 -40 27 -14 67 -31 100 -74 144 -57 58 -125
63 -211 16 l-47 -25 -44 44 c-69 70 -71 71 -103 47z"/>
<path d="M5622 3709 c-23 -22 -50 -64 -61 -92 -18 -48 -18 -53 -3 -64 9 -7 23
-17 30 -23 6 -6 12 -8 12 -5 0 3 20 -8 45 -25 38 -26 53 -31 83 -26 20 3 42 5
49 6 6 0 15 10 19 23 4 12 15 28 25 35 15 10 17 21 13 49 -10 61 -20 78 -60
98 -22 11 -52 30 -67 43 -16 12 -32 22 -37 22 -4 0 -26 -18 -48 -41z"/>
<path d="M2359 3682 c-8 -15 -31 -56 -49 -92 -19 -36 -37 -67 -40 -70 -3 -3
-20 -33 -39 -68 l-33 -64 181 4 c99 1 181 6 181 9 0 4 -34 63 -75 132 -41 68
-75 129 -75 134 0 6 -8 17 -18 26 -16 15 -18 14 -33 -11z"/>
<path d="M4325 3602 c-2 -2 -47 -4 -99 -4 -74 1 -96 -3 -96 -13 0 -7 -4 -15
-8 -17 -4 -1 -24 -33 -44 -69 l-36 -66 45 -79 c25 -44 57 -99 70 -124 49 -87
67 -105 104 -103 19 1 61 2 94 2 l61 1 85 153 c92 166 91 157 44 232 -14 22
-31 50 -37 63 -6 12 -18 23 -27 23 -39 3 -153 4 -156 1z"/>
<path d="M5379 3524 c-11 -13 -11 -18 -1 -21 6 -3 12 -12 12 -20 0 -9 -3 -13
-6 -10 -4 3 -15 2 -26 -4 -15 -8 -18 -17 -14 -35 5 -18 2 -24 -10 -24 -9 0
-14 -7 -12 -17 2 -13 11 -17 31 -15 16 2 39 -4 53 -13 34 -22 56 -13 48 20 -7
29 2 32 28 8 14 -12 21 -14 30 -5 23 23 -24 92 -93 136 -24 15 -27 15 -40 0z"/>
<path d="M1439 3459 c0 -8 -3 -23 -5 -34 -7 -26 -7 -85 -1 -91 2 -3 15 -7 28
-10 13 -3 34 -8 46 -11 35 -8 53 18 69 104 6 30 -1 33 -98 49 -29 5 -38 3 -39
-7z"/>
<path d="M5504 3300 l-161 -108 3 -98 c2 -54 5 -103 8 -110 3 -7 35 -28 73
-46 37 -18 70 -35 73 -38 3 -3 52 -28 110 -56 104 -51 121 -53 150 -24 3 3 31
22 62 42 l57 37 1 199 c1 197 -3 232 -22 232 -15 0 -138 61 -144 72 -13 21
-61 -2 -210 -102z"/>
<path d="M1844 3375 c-16 -7 -43 -24 -61 -37 l-32 -25 70 -1 c57 -1 81 -7 127
-32 79 -42 262 -180 262 -197 0 -21 -31 -71 -48 -78 -13 -5 -133 50 -212 97
-81 48 -135 70 -185 75 -47 5 -57 2 -79 -20 -21 -21 -24 -32 -22 -78 2 -30 4
-57 5 -60 0 -4 20 -6 44 -5 23 1 60 -5 82 -15 22 -9 93 -29 158 -44 64 -16
117 -31 117 -35 0 -7 -79 -41 -110 -47 -25 -6 -182 -3 -194 3 -6 3 14 -17 44
-44 30 -28 58 -48 62 -45 5 2 14 1 21 -4 32 -20 130 -19 193 3 51 17 114 58
114 74 0 10 27 45 64 83 13 14 22 45 29 107 9 83 8 88 -17 138 -15 29 -28 52
-31 52 -2 0 -2 -16 -1 -35 2 -19 0 -35 -5 -35 -10 0 -68 50 -119 101 -96 97
-201 137 -276 104z"/>
<path d="M2480 3328 c-150 -42 -132 -254 23 -271 48 -5 106 28 132 76 11 21
28 37 38 37 23 0 22 14 -9 65 -22 39 -79 86 -109 91 -5 1 -17 4 -25 7 -8 3
-31 1 -50 -5z"/>
<path d="M1235 3297 c-139 -42 -230 -158 -228 -293 1 -87 28 -147 128 -278 50
-66 94 -125 96 -131 2 -5 20 -39 39 -75 19 -36 34 -67 35 -70 1 -7 26 -83 32
-100 3 -8 7 -25 8 -38 3 -32 22 -49 41 -37 12 8 17 31 20 91 2 44 10 107 19
140 9 32 18 66 20 74 8 37 60 165 67 168 4 2 8 9 8 16 0 7 14 44 31 82 74 162
38 324 -89 405 -72 45 -165 64 -227 46z"/>
<path d="M4985 3209 c-16 -5 -44 -21 -61 -36 -78 -71 -89 -148 -36 -253 45
-88 74 -113 124 -107 21 2 41 7 45 10 5 6 -35 98 -47 107 -4 3 -10 15 -14 28
-10 29 -30 28 -59 -4 -22 -24 -25 -24 -31 -7 -17 42 -18 113 -2 147 20 42 76
85 113 87 72 4 89 -1 136 -44 49 -44 51 -57 12 -57 -47 0 -48 -23 -3 -103 42
-74 42 -75 65 -58 12 9 27 32 33 51 9 31 6 43 -21 97 -34 69 -60 100 -103 127
-32 21 -106 28 -151 15z"/>
<path d="M841 3172 c-6 -11 -6 -24 1 -35 5 -10 8 -25 6 -33 -2 -13 -6 -12 -24
4 -11 11 -35 27 -51 36 -28 14 -32 14 -47 -3 -12 -13 -15 -27 -10 -45 l6 -25
-40 21 c-34 19 -42 20 -56 9 -24 -20 -20 -33 23 -73 37 -36 53 -65 66 -121 5
-24 10 -28 33 -25 25 3 42 24 57 73 5 17 8 18 15 5 5 -9 11 -35 13 -59 7 -70
50 -89 77 -33 39 81 42 200 7 285 -13 29 -22 37 -41 37 -14 0 -30 -8 -35 -18z"/>
<path d="M105 3003 c4 -82 8 -166 10 -188 2 -22 4 -73 5 -112 2 -47 7 -77 16
-84 8 -7 14 -7 14 -1 0 5 14 15 30 22 17 7 30 16 30 21 0 5 4 9 10 9 8 0 111
64 283 177 37 25 67 50 67 57 0 7 -39 32 -87 55 -86 41 -178 89 -300 157 -34
19 -67 34 -73 34 -9 0 -10 -37 -5 -147z"/>
<path d="M2629 3062 c-14 -20 -29 -54 -33 -74 -6 -32 -4 -37 16 -43 13 -4 43
-16 67 -27 32 -14 46 -16 51 -8 4 6 10 11 14 11 18 -3 23 2 39 32 27 50 12 86
-48 119 -28 14 -57 27 -65 27 -8 0 -27 -16 -41 -37z"/>
<path d="M4283 3013 c-7 -2 -13 -11 -13 -19 0 -8 -5 -14 -12 -14 -7 0 3 -16
22 -35 l34 -35 -26 -27 c-26 -29 -67 -76 -113 -128 -14 -16 -28 -41 -32 -54
-6 -26 -4 -28 135 -150 l74 -65 56 4 c32 2 69 4 84 4 15 1 35 11 45 22 10 12
33 38 51 59 l33 37 45 -32 c49 -35 62 -32 89 20 12 23 12 31 -1 56 -9 16 -22
36 -30 45 -19 22 -18 33 10 66 13 15 29 46 35 68 9 33 8 43 -9 69 -11 17 -20
27 -20 23 0 -5 -20 8 -45 28 -39 32 -49 36 -80 31 -19 -4 -35 -11 -35 -15 0
-5 -13 -7 -30 -5 -16 2 -31 0 -34 -4 -3 -5 -19 -7 -37 -6 -23 2 -33 -3 -36
-17 -6 -23 -23 -15 -23 10 0 16 -7 18 -47 16 -71 -5 -84 1 -73 31 9 24 6 27
-17 17z"/>
<path d="M2390 2998 c-23 -7 -46 -38 -107 -137 -101 -166 -143 -245 -143 -272
0 -53 190 -180 276 -185 l41 -2 60 91 c76 116 168 275 175 304 8 29 -20 68
-78 110 -96 69 -185 105 -224 91z"/>
<path d="M5157 2853 c-5 -8 -36 -133 -43 -170 -2 -12 -9 -34 -14 -48 -5 -14
-8 -25 -5 -25 2 0 -2 -18 -10 -40 -8 -22 -12 -40 -10 -40 2 0 -5 -29 -15 -65
-10 -36 -17 -65 -15 -65 3 0 0 -12 -6 -27 -6 -16 -14 -46 -19 -68 -5 -22 -15
-65 -22 -95 -16 -63 -14 -80 11 -80 9 0 70 -14 136 -30 66 -17 131 -33 145
-36 14 -3 36 -7 49 -10 14 -3 28 -7 33 -10 8 -5 32 -11 78 -19 46 -8 55 -11
68 -18 6 -5 12 -6 12 -4 0 2 38 -6 85 -18 l85 -22 7 21 c4 12 8 26 9 33 1 7
10 42 19 79 9 37 19 76 21 87 2 10 6 27 9 37 3 10 8 27 10 37 2 10 13 54 25
98 20 77 30 124 34 155 2 8 6 25 10 37 4 12 9 30 11 40 2 10 9 35 14 56 10 42
1 52 -55 61 -16 2 -30 5 -31 6 -3 3 -3 3 -58 15 -22 4 -44 10 -50 11 -14 5
-82 21 -135 33 -25 5 -101 24 -170 41 -69 17 -136 33 -150 36 -14 3 -32 7 -42
10 -9 3 -18 1 -21 -3z"/>
<path d="M605 2810 c-30 -13 -59 -23 -73 -26 -25 -5 -60 -33 -58 -46 5 -29 49
-154 59 -166 12 -15 74 -8 91 9 6 5 18 9 27 9 26 0 73 27 79 46 6 17 -34 149
-52 172 -12 14 -43 15 -73 2z"/>
<path d="M1629 2708 c-13 -18 -26 -35 -30 -38 -3 -3 -19 -25 -34 -50 -30 -48
-52 -117 -61 -190 l-6 -46 49 -22 c27 -12 59 -22 71 -22 11 0 24 -5 27 -11 4
-5 36 -24 73 -40 65 -30 66 -30 111 -14 117 43 121 46 121 84 0 28 7 42 31 61
l31 26 -34 84 c-32 82 -34 85 -88 112 -30 15 -67 28 -82 28 -15 0 -30 5 -33
10 -7 11 -68 44 -102 54 -16 5 -26 0 -44 -26z"/>
<path d="M4851 2615 c-17 -41 -31 -79 -31 -85 0 -6 12 -15 28 -21 15 -6 38
-16 53 -23 38 -19 106 12 122 56 6 18 10 36 9 41 -1 4 3 7 8 7 6 0 10 5 10 11
0 11 -25 39 -35 39 -3 0 -27 10 -53 22 -76 35 -76 35 -111 -47z"/>
<path d="M833 2634 c-82 -30 -162 -124 -177 -211 -3 -15 -12 -50 -20 -76 -26
-88 -6 -150 63 -191 21 -12 36 -15 42 -9 11 11 69 209 69 235 0 10 -6 18 -12
19 -7 0 -24 2 -38 4 -14 1 -33 -2 -43 -7 -31 -16 -32 0 -3 55 35 66 43 77 86
109 41 30 121 52 145 39 6 -3 21 -7 35 -9 103 -13 168 -98 174 -226 4 -88 -2
-103 -30 -77 -29 26 -64 43 -78 38 -11 -5 -28 -51 -41 -112 -2 -11 -8 -35 -14
-52 -5 -18 -7 -33 -4 -33 3 0 0 -6 -6 -14 -6 -7 -8 -21 -5 -31 6 -15 16 -17
62 -12 89 9 112 42 159 232 52 211 -158 401 -364 329z"/>
<path d="M229 2609 c-6 -13 -8 -38 -5 -61 5 -30 2 -43 -13 -59 -21 -23 -41
-90 -41 -139 0 -38 25 -100 41 -100 6 0 9 -8 6 -20 -6 -24 25 -66 41 -56 7 4
12 14 12 22 0 10 12 14 44 14 55 0 110 30 126 70 7 17 10 49 7 75 -6 44 -5 46
32 65 68 34 58 69 -22 77 -23 2 -68 11 -99 20 -55 15 -58 18 -73 64 -18 53
-37 62 -56 28z"/>
<path d="M4077 2589 c-9 -6 -17 -19 -17 -29 0 -11 -8 -34 -18 -52 -10 -18 -17
-38 -15 -45 2 -6 -4 -16 -15 -22 -25 -13 -36 -51 -15 -51 28 0 6 -24 -35 -38
-47 -15 -70 -44 -50 -62 29 -24 165 -102 185 -106 24 -5 25 -4 40 96 6 36 13
54 21 52 19 -4 52 17 52 32 0 7 9 23 20 36 11 13 20 27 20 32 0 4 6 8 14 8 39
0 21 51 -24 70 -16 7 -30 16 -30 20 0 4 -8 10 -17 13 -10 3 -36 17 -58 30 -30
19 -45 23 -58 16z"/>
<path d="M4542 2434 c-87 -26 -150 -78 -188 -155 -29 -57 -30 -69 -4 -69 11 0
20 5 20 12 0 6 3 9 6 5 3 -3 27 1 52 9 26 8 52 16 57 18 106 30 165 51 165 60
0 21 -36 107 -51 120 -12 11 -21 11 -57 0z"/>
<path d="M4640 2436 c0 -4 4 -14 9 -24 9 -17 32 -72 34 -82 4 -18 67 -155 71
-155 3 0 24 37 46 83 l40 83 -33 31 c-17 16 -48 37 -67 45 -38 17 -100 28
-100 19z"/>
<path d="M2297 2379 c-9 -5 -22 -7 -28 -4 -17 11 -39 -15 -39 -46 0 -16 -4
-29 -10 -29 -5 0 -10 -9 -10 -21 0 -22 22 -49 39 -49 5 0 26 -10 47 -22 l36
-21 20 24 c29 37 39 68 28 88 -5 10 -7 21 -4 23 2 3 -7 13 -20 22 -16 10 -23
22 -20 31 7 17 -12 19 -39 4z"/>
<path d="M4844 2278 c-11 -18 -24 -44 -30 -58 -7 -14 -30 -63 -52 -110 -22
-47 -42 -91 -44 -99 -3 -13 73 -61 98 -61 13 0 66 63 71 84 1 6 5 22 9 36 14
51 7 155 -13 199 l-20 43 -19 -34z"/>
<path d="M1991 2241 c-13 -9 -9 -13 63 -76 7 -5 23 -20 37 -33 l26 -22 2 54
c1 36 -3 58 -12 68 -17 16 -95 23 -116 9z"/>
<path d="M3762 2083 c-135 -227 -127 -211 -105 -235 10 -11 34 -29 53 -39 19
-11 42 -23 50 -29 93 -59 184 -110 196 -110 8 0 27 20 42 45 15 25 29 45 32
45 3 0 4 -20 2 -44 -2 -25 2 -55 10 -71 14 -26 15 -26 123 156 59 101 110 191
113 201 4 17 2 17 -36 4 -23 -8 -50 -20 -61 -26 -26 -13 -26 -9 -2 39 11 20
16 42 13 49 -8 11 -79 62 -88 62 -2 0 -33 18 -68 40 -35 22 -66 40 -71 40 -4
0 -18 9 -32 20 -54 42 -63 34 -171 -147z"/>
<path d="M1923 2201 c-42 -38 -65 -86 -67 -138 -1 -36 2 -43 18 -43 18 0 18
-1 3 -18 -15 -16 -14 -20 9 -50 14 -18 34 -36 44 -42 16 -9 18 -4 17 70 0 75
-1 79 -19 69 -11 -6 -22 -8 -24 -6 -6 5 21 34 80 85 l39 34 -35 33 -35 34 -30
-28z"/>
<path d="M2139 2208 c-1 -20 -1 -129 0 -170 1 -37 2 -38 41 -38 34 0 41 4 46
24 8 34 -1 93 -21 130 -20 37 -65 74 -66 54z"/>
<path d="M4430 2205 c-19 -7 -39 -13 -45 -15 -52 -14 -70 -24 -70 -41 -1 -26
26 -123 40 -142 13 -18 15 -17 35 23 11 22 30 57 40 76 11 19 17 34 14 34 -4
0 1 12 10 26 27 40 18 54 -24 39z"/>
<path d="M1374 2195 c-120 -25 -203 -105 -229 -220 -31 -134 35 -273 156 -332
44 -20 44 -21 25 -68 -8 -19 -12 -35 -8 -36 38 -6 105 13 189 52 229 110 291
379 124 536 -31 30 -117 70 -161 76 -19 2 -63 -1 -96 -8z"/>
<path d="M300 2085 c-39 -39 -42 -47 -33 -67 7 -13 17 -40 23 -60 14 -46 17
-48 84 -52 51 -4 54 -2 94 40 44 45 47 54 33 82 -5 9 -16 34 -25 55 -11 26
-22 37 -38 38 -13 1 -39 3 -59 4 -31 3 -42 -2 -79 -40z"/>
<path d="M4433 2057 c-10 -17 -25 -47 -32 -65 -13 -30 -12 -35 8 -56 29 -30
87 -61 149 -76 41 -11 62 -11 104 -2 59 14 139 52 133 62 -5 8 -36 23 -230
115 -55 27 -103 49 -107 51 -3 2 -15 -11 -25 -29z"/>
<path d="M680 2000 c-69 -44 -129 -83 -135 -87 -5 -5 -35 -24 -65 -43 -71 -45
-100 -77 -100 -109 1 -35 25 -61 93 -96 54 -29 74 -55 42 -55 -8 0 -15 -5 -15
-10 0 -6 6 -9 13 -8 6 2 11 -2 10 -9 -3 -12 170 -303 207 -351 11 -13 25 -42
30 -63 6 -22 20 -48 32 -59 43 -40 72 -29 278 106 106 69 199 132 207 139 7 8
16 27 19 44 5 24 1 36 -22 59 -28 28 -134 177 -134 188 0 8 -110 155 -131 176
-10 10 -24 27 -33 39 -18 26 -29 20 -33 -19 -7 -63 -16 -91 -29 -96 -14 -5
-36 31 -28 45 4 7 7 34 19 170 7 74 7 76 -20 97 -15 12 -39 22 -54 22 -15 0
-78 -33 -151 -80z"/>
<path d="M5328 1997 c-7 -8 -31 -51 -53 -96 -39 -82 -40 -83 -72 -78 -18 3
-33 2 -33 -4 0 -12 -50 -12 -51 1 -1 6 -3 15 -4 20 -1 6 -3 15 -4 20 -1 12
-21 14 -21 2 0 -5 -14 -34 -31 -66 -24 -44 -34 -54 -44 -46 -17 14 -26 -8 -13
-30 6 -10 3 -28 -10 -55 -20 -39 -20 -55 -2 -55 6 0 26 32 45 70 19 39 39 70
44 70 13 0 51 -50 51 -66 0 -9 -11 -14 -29 -14 -16 0 -34 -7 -41 -15 -14 -17
-11 -18 45 -19 33 -1 40 -5 41 -21 1 -11 2 -32 3 -48 1 -22 7 -29 30 -33 17
-4 31 -13 33 -21 2 -8 21 -21 43 -29 56 -19 135 5 154 47 13 30 38 38 58 18
16 -16 48 4 62 38 6 16 15 35 20 43 38 59 103 209 98 223 -6 15 -274 157 -296
157 -5 0 -16 -6 -23 -13z"/>
<path d="M2035 1980 l-70 -5 -1 -40 c0 -49 17 -64 74 -65 64 0 114 28 170 95
11 13 10 15 -5 16 -10 0 -36 1 -58 2 -22 1 -71 0 -110 -3z"/>
<path d="M1833 1899 c-12 -4 -41 -41 -64 -81 -23 -40 -48 -80 -54 -88 -11 -14
-12 -24 -7 -72 1 -9 22 -26 47 -38 25 -12 51 -27 58 -34 23 -23 102 -55 122
-50 11 3 33 26 48 52 34 58 47 79 70 114 9 14 17 37 17 50 0 29 -13 41 -95 90
-98 58 -118 66 -142 57z"/>
<path d="M3591 1794 c-24 -31 -25 -33 -7 -56 19 -25 59 -38 71 -24 29 34 33
52 16 73 -27 35 -56 37 -80 7z"/>
<path d="M4524 1791 c-2 -2 -17 -5 -32 -6 -102 -7 -166 -26 -193 -58 -17 -19
-19 -35 -16 -122 4 -112 16 -145 52 -145 18 0 35 14 64 54 34 45 46 54 83 61
24 4 48 9 54 10 6 2 22 -7 35 -19 82 -74 138 -74 134 -1 -2 32 -26 132 -44
178 -7 17 -24 34 -45 42 -32 14 -81 17 -92 6z"/>
<path d="M3731 1718 c-1 -21 -6 -28 -21 -28 -44 0 -128 -59 -115 -81 4 -5 -1
-9 -9 -9 -9 0 -16 -4 -16 -10 0 -5 -5 -10 -11 -10 -6 0 -9 6 -6 13 7 19 -12
47 -33 47 -16 0 -80 -75 -80 -95 0 -3 -10 -19 -22 -35 -18 -25 -20 -33 -10
-55 12 -27 31 -32 50 -13 22 22 24 0 3 -40 l-21 -41 26 -18 25 -19 -26 -46
c-21 -39 -24 -51 -15 -68 8 -16 17 -19 33 -14 12 3 22 7 23 8 0 0 11 18 23 39
24 39 41 46 59 24 8 -10 6 -21 -8 -44 -32 -53 -30 -93 5 -93 19 0 32 11 53 43
26 41 29 43 56 34 26 -9 32 -7 53 19 19 24 25 27 33 14 5 -8 10 -18 10 -21 0
-11 29 -19 44 -13 7 3 25 26 40 52 15 26 35 61 44 77 10 17 18 35 17 40 -2 36
-48 47 -72 18 -13 -17 -14 -16 -8 7 4 14 7 30 7 37 1 7 7 14 14 17 20 8 27 70
14 112 -11 33 -11 39 6 51 16 12 15 13 -14 7 -20 -4 -32 -2 -32 4 0 12 -63 53
-88 56 -10 2 -20 15 -23 32 l-7 29 -1 -27z"/>
<path d="M1504 1541 c-28 -27 -138 -152 -147 -168 -7 -11 10 -32 60 -79 68
-64 68 -64 125 -63 l58 2 57 65 c32 36 59 70 61 77 3 12 -37 53 -128 135 -54
48 -65 52 -86 31z"/>
<path d="M1808 1499 c-37 -19 -40 -23 -40 -54 0 -71 2 -80 30 -92 59 -25 70
-24 111 2 36 22 40 29 37 58 -3 17 -5 41 -5 52 -1 15 -12 25 -38 34 -56 20
-55 20 -95 0z"/>
<path d="M4028 1402 c-53 -80 -61 -102 -45 -122 16 -21 143 -100 160 -100 19
0 36 22 85 103 35 58 39 72 29 88 -6 10 -17 19 -24 19 -7 0 -13 5 -13 10 0 6
-5 10 -11 10 -6 0 -30 14 -54 30 -63 44 -75 40 -127 -38z"/>
<path d="M4540 1441 l-35 -6 58 -28 c89 -44 174 -163 219 -307 1 -3 17 -41 35
-85 18 -43 33 -84 33 -90 0 -7 -25 -24 -55 -40 l-55 -27 -19 23 c-11 13 -50
77 -88 141 -110 190 -146 241 -190 272 -53 37 -108 38 -136 4 -49 -62 -75
-144 -41 -131 10 4 35 -15 76 -58 130 -137 243 -249 250 -249 5 0 8 -6 8 -14
0 -10 -7 -13 -22 -10 -13 2 -42 6 -65 9 -65 7 -165 57 -221 111 -45 44 -50 47
-47 24 2 -14 4 -25 5 -25 1 0 3 -8 5 -17 2 -10 13 -31 24 -47 12 -16 20 -34
19 -40 -6 -20 86 -102 149 -133 80 -39 192 -50 247 -24 19 9 37 16 40 16 16 0
136 63 136 71 0 8 30 46 66 83 19 19 36 58 39 85 1 14 5 49 9 76 l7 50 -20
-29 c-41 -61 -59 -54 -81 35 -6 24 -12 51 -14 60 -38 154 -96 248 -180 288
-42 21 -88 24 -156 12z"/>
<path d="M4940 1432 c0 -6 5 -23 12 -39 6 -15 12 -30 13 -33 3 -10 18 -46 35
-87 10 -23 16 -44 12 -47 -3 -3 0 -6 6 -6 7 0 12 -6 12 -13 0 -7 9 -32 20 -55
11 -22 20 -46 20 -52 0 -10 27 -69 37 -80 6 -6 32 26 195 234 47 61 83 115 79
119 -4 4 -25 10 -47 12 -21 3 -57 7 -79 10 -22 2 -53 7 -70 10 -16 3 -48 8
-70 10 -22 2 -40 5 -40 6 0 2 -31 8 -87 15 -30 4 -48 2 -48 -4z"/>
<path d="M1766 1288 c-93 -31 -148 -77 -188 -158 -28 -57 -29 -62 -29 -137 -1
-109 70 -227 159 -264 17 -8 32 -18 32 -22 0 -5 4 -5 10 -2 5 3 20 1 32 -6 12
-7 45 -11 73 -10 52 1 145 29 145 43 0 4 6 8 13 8 13 1 87 66 87 77 0 3 7 14
15 23 22 24 43 131 38 190 -9 105 -78 200 -178 246 -71 33 -136 37 -209 12z"/>
<path d="M3227 1266 c-89 -49 -101 -127 -38 -253 34 -69 64 -158 60 -180 -6
-35 16 -61 25 -30 29 95 45 131 88 200 76 121 77 195 3 245 -43 30 -101 38
-138 18z"/>
<path d="M2985 1160 c-25 -27 -22 -80 6 -102 45 -37 109 -7 109 50 0 57 -79
92 -115 52z"/>
<path d="M2255 1159 c-31 -15 -44 -43 -51 -106 -3 -31 -5 -59 -6 -62 -4 -41 4
-61 28 -67 21 -5 32 0 62 33 32 34 44 40 83 41 40 2 49 -2 84 -38 67 -69 94
-51 89 59 -3 88 -17 124 -50 140 -30 13 -211 13 -239 0z"/>
<path d="M2750 1115 c0 -12 -9 -15 -38 -14 -21 2 -43 -1 -50 -5 -26 -16 2 -26
74 -26 80 0 85 -4 57 -51 -20 -34 -38 -37 -46 -9 -5 20 -33 37 -44 27 -3 -3 5
-20 17 -36 25 -36 22 -43 -25 -65 -36 -17 -47 -36 -20 -36 21 0 19 -24 -5 -45
-14 -13 -18 -25 -14 -39 4 -12 7 -29 8 -38 2 -27 77 -85 109 -83 26 2 31 -5
28 -33 -1 -8 3 -20 10 -28 16 -19 286 -20 313 -1 16 12 18 30 17 162 -1 86 -6
154 -12 160 -6 6 -74 11 -157 12 -81 1 -152 2 -158 2 -12 1 -15 31 -3 31 4 0
13 16 20 35 8 22 20 35 31 35 10 0 18 7 18 15 0 11 -12 15 -50 15 -38 0 -50 4
-50 15 0 8 -7 15 -15 15 -8 0 -15 -7 -15 -15z"/>
<path d="M4028 1124 c-6 -5 -290 -104 -493 -171 -159 -53 -165 -64 -115 -211
127 -374 183 -528 197 -544 9 -10 29 -18 46 -18 24 0 123 30 187 57 8 3 19 5
24 4 4 -1 13 2 20 7 6 5 38 17 71 27 33 10 65 21 70 25 6 4 31 13 56 20 45 13
47 16 95 109 26 53 48 98 49 101 1 3 12 26 24 53 l23 47 -27 83 c-15 45 -31
91 -35 102 -21 52 -90 253 -90 262 0 29 -82 67 -102 47z"/>
<path d="M1262 1113 c-6 -2 -10 -9 -6 -14 3 -5 -4 -9 -15 -9 -10 0 -21 -5 -23
-11 -6 -17 -66 -14 -86 4 -23 21 -42 22 -42 2 0 -8 -10 -25 -22 -37 -52 -54
-98 -109 -98 -118 0 -9 24 -34 96 -97 38 -34 46 -37 95 -34 48 2 57 6 84 38
l30 35 32 -19 c31 -17 33 -17 46 2 16 20 13 40 -9 66 -11 13 -10 22 10 59 19
35 22 49 13 67 -6 13 -14 23 -18 23 -4 0 -17 11 -30 25 -24 25 -33 28 -57 18z"/>
<path d="M2895 1037 c-11 -7 -21 -12 -23 -13 -11 -4 14 -34 29 -34 14 0 19 7
19 30 0 17 -1 30 -2 29 -2 0 -12 -6 -23 -12z"/>
<path d="M2354 903 c-30 -33 -30 -62 -1 -96 46 -54 131 -16 120 53 -10 67 -76
90 -119 43z"/>
<path d="M1417 852 c-8 -9 -36 -48 -61 -86 l-46 -68 23 -20 c15 -14 17 -18 5
-15 -9 3 -24 0 -33 -7 -14 -10 -3 -21 85 -80 l103 -68 -5 31 c-5 35 -4 35 23
21 12 -7 19 -7 19 -1 0 5 6 16 13 23 6 7 31 42 55 77 34 52 40 67 30 77 -11
10 -155 109 -184 127 -6 4 -18 -1 -27 -11z"/>
<path d="M2180 803 c-9 -2 -44 -62 -79 -134 -63 -128 -64 -132 -68 -227 -5
-103 -6 -146 -4 -174 1 -11 15 -21 44 -29 23 -6 50 -15 60 -20 10 -6 40 -9 67
-8 33 2 55 -3 67 -13 16 -13 31 -19 93 -33 8 -2 39 -10 68 -18 29 -8 55 -10
58 -5 3 4 10 6 15 3 5 -4 9 -1 9 4 0 6 7 11 15 11 8 0 15 5 15 10 0 6 4 10 9
10 5 0 42 20 83 44 53 31 72 48 71 62 -1 11 -5 36 -8 56 -5 30 -2 42 16 60 47
50 51 63 32 96 -53 89 -73 125 -73 133 0 5 -3 9 -8 9 -4 0 -13 13 -20 29 -12
26 -22 31 -122 56 -59 15 -118 24 -129 20 -13 -4 -30 1 -48 14 -15 11 -41 22
-58 25 -16 2 -43 9 -60 13 -16 5 -37 8 -45 6z"/>
<path d="M1675 578 c-27 -57 -50 -105 -50 -108 0 -3 -4 -10 -8 -17 -5 -8 30
-30 109 -67 63 -31 119 -56 124 -56 6 0 51 81 55 100 0 3 15 34 33 69 18 34
32 64 32 66 0 4 -230 115 -239 115 -4 0 -29 -46 -56 -102z"/>
<path d="M4359 658 c-8 -28 -5 -38 12 -38 29 0 15 -16 -20 -23 -28 -6 -36 -25
-18 -43 12 -12 8 -21 -13 -27 -13 -3 -18 -11 -14 -20 3 -10 19 -14 51 -13 29
0 48 -4 51 -12 5 -15 24 -16 40 0 8 8 8 17 1 30 -15 27 -3 35 21 13 26 -24 54
-13 44 17 -15 50 -93 118 -134 118 -11 0 -20 -1 -21 -2z"/>
<path d="M3177 574 c-1 -1 -51 -4 -112 -8 -60 -3 -128 -7 -150 -10 -22 -2 -45
-5 -52 -5 -20 -2 -50 -40 -58 -74 -8 -36 -9 -145 0 -228 6 -63 26 -119 49
-139 18 -14 151 -17 336 -6 231 14 228 14 255 58 17 28 20 51 19 158 -1 130
-19 215 -53 243 -9 8 -54 12 -123 12 -60 0 -110 0 -111 -1z"/>
</g>
</svg>
